<svg width="16" height="17" viewBox="0 0 16 17" fill="none" xmlns="http://www.w3.org/2000/svg">
<path d="M8 5.25252C7.26973 5.25252 6.55586 5.46907 5.94866 5.87478C5.34147 6.2805 4.86821 6.85716 4.58875 7.53184C4.30929 8.20652 4.23617 8.94892 4.37864 9.66516C4.52111 10.3814 4.87277 11.0393 5.38914 11.5557C5.90552 12.0721 6.56343 12.4237 7.27967 12.5662C7.9959 12.7087 8.7383 12.6355 9.41299 12.3561C10.0877 12.0766 10.6643 11.6034 11.07 10.9962C11.4758 10.389 11.6923 9.67509 11.6923 8.94482C11.6913 7.96588 11.302 7.02731 10.6097 6.33509C9.91751 5.64287 8.97895 5.25353 8 5.25252ZM8 11.4064C7.51315 11.4064 7.03724 11.262 6.63244 10.9915C6.22765 10.721 5.91214 10.3366 5.72583 9.88681C5.53953 9.43703 5.49078 8.94209 5.58576 8.4646C5.68074 7.98711 5.91518 7.54851 6.25943 7.20425C6.60368 6.86 7.04229 6.62556 7.51978 6.53058C7.99727 6.4356 8.4922 6.48435 8.94199 6.67066C9.39178 6.85697 9.77622 7.17247 10.0467 7.57727C10.3172 7.98207 10.4615 8.45798 10.4615 8.94482C10.4615 9.59767 10.2022 10.2238 9.74057 10.6854C9.27894 11.147 8.65284 11.4064 8 11.4064ZM11.6923 0.944824H4.30769C3.1656 0.946046 2.07063 1.40028 1.26304 2.20787C0.455459 3.01545 0.00122171 4.11042 0 5.25252V12.6371C0.00122171 13.7792 0.455459 14.8742 1.26304 15.6818C2.07063 16.4894 3.1656 16.9436 4.30769 16.9448H11.6923C12.8344 16.9436 13.9294 16.4894 14.737 15.6818C15.5445 14.8742 15.9988 13.7792 16 12.6371V5.25252C15.9988 4.11042 15.5445 3.01545 14.737 2.20787C13.9294 1.40028 12.8344 0.946046 11.6923 0.944824ZM14.7692 12.6371C14.7692 13.4532 14.4451 14.2358 13.868 14.8128C13.291 15.3899 12.5084 15.7141 11.6923 15.7141H4.30769C3.49164 15.7141 2.70901 15.3899 2.13198 14.8128C1.55494 14.2358 1.23077 13.4532 1.23077 12.6371V5.25252C1.23077 4.43647 1.55494 3.65384 2.13198 3.0768C2.70901 2.49977 3.49164 2.17559 4.30769 2.17559H11.6923C12.5084 2.17559 13.291 2.49977 13.868 3.0768C14.4451 3.65384 14.7692 4.43647 14.7692 5.25252V12.6371ZM12.9231 4.94482C12.9231 5.12739 12.8689 5.30586 12.7675 5.45766C12.6661 5.60946 12.5219 5.72777 12.3532 5.79764C12.1846 5.8675 11.999 5.88578 11.8199 5.85016C11.6409 5.81455 11.4764 5.72663 11.3473 5.59754C11.2182 5.46844 11.1303 5.30397 11.0947 5.12491C11.059 4.94585 11.0773 4.76025 11.1472 4.59158C11.2171 4.42291 11.3354 4.27874 11.4872 4.17731C11.639 4.07588 11.8174 4.02175 12 4.02175C12.2448 4.02175 12.4796 4.119 12.6527 4.29211C12.8258 4.46522 12.9231 4.70001 12.9231 4.94482Z" fill="black"/>
</svg>
