<svg width="221" height="63" viewBox="0 0 221 63" fill="none" xmlns="http://www.w3.org/2000/svg">
<path d="M7.70455 40H1.51705V22.5455H7.75568C9.51136 22.5455 11.0227 22.8949 12.2898 23.5938C13.5568 24.2869 14.5313 25.2841 15.2131 26.5852C15.9006 27.8864 16.2443 29.4432 16.2443 31.2557C16.2443 33.0739 15.9006 34.6364 15.2131 35.9432C14.5313 37.25 13.5511 38.2528 12.2727 38.9517C11 39.6506 9.47727 40 7.70455 40ZM5.20739 36.8381H7.55114C8.64205 36.8381 9.55966 36.6449 10.304 36.2585C11.054 35.8665 11.6165 35.2614 11.9915 34.4432C12.3722 33.6193 12.5625 32.5568 12.5625 31.2557C12.5625 29.9659 12.3722 28.9119 11.9915 28.0938C11.6165 27.2756 11.0568 26.6733 10.3125 26.2869C9.56818 25.9006 8.65057 25.7074 7.55966 25.7074H5.20739V36.8381ZM24.8757 40.2557C23.5291 40.2557 22.37 39.983 21.3984 39.4375C20.4325 38.8864 19.6882 38.108 19.1655 37.1023C18.6428 36.0909 18.3814 34.8949 18.3814 33.5142C18.3814 32.1676 18.6428 30.9858 19.1655 29.9688C19.6882 28.9517 20.424 28.1591 21.3729 27.5909C22.3274 27.0227 23.4467 26.7386 24.7308 26.7386C25.5945 26.7386 26.3984 26.8778 27.1428 27.1562C27.8928 27.429 28.5462 27.8409 29.103 28.392C29.6655 28.9432 30.103 29.6364 30.4155 30.4716C30.728 31.3011 30.8842 32.2727 30.8842 33.3864V34.3835H19.8303V32.1335H27.4666C27.4666 31.6108 27.353 31.1477 27.1257 30.7443C26.8984 30.3409 26.5831 30.0256 26.1797 29.7983C25.782 29.5653 25.3189 29.4489 24.7905 29.4489C24.2393 29.4489 23.7507 29.5767 23.3246 29.8324C22.9041 30.0824 22.5746 30.4205 22.3359 30.8466C22.0973 31.267 21.9751 31.7358 21.9695 32.2528V34.392C21.9695 35.0398 22.0888 35.5994 22.3274 36.071C22.5717 36.5426 22.9155 36.9062 23.3587 37.1619C23.8018 37.4176 24.3274 37.5455 24.9354 37.5455C25.3388 37.5455 25.7081 37.4886 26.0433 37.375C26.3786 37.2614 26.6655 37.0909 26.9041 36.8636C27.1428 36.6364 27.3246 36.358 27.4496 36.0284L30.8075 36.25C30.6371 37.0568 30.2876 37.7614 29.7592 38.3636C29.2365 38.9602 28.5604 39.4261 27.7308 39.7614C26.907 40.0909 25.9553 40.2557 24.8757 40.2557ZM36.8842 32.4318V40H33.2536V26.9091H36.7138V29.2188H36.8672C37.157 28.4574 37.6428 27.8551 38.3246 27.4119C39.0064 26.9631 39.8331 26.7386 40.8047 26.7386C41.7138 26.7386 42.5064 26.9375 43.1825 27.3352C43.8587 27.733 44.3842 28.3011 44.7592 29.0398C45.1342 29.7727 45.3217 30.6477 45.3217 31.6648V40H41.6911V32.3125C41.6967 31.5114 41.4922 30.8864 41.0774 30.4375C40.6626 29.983 40.0916 29.7557 39.3643 29.7557C38.8757 29.7557 38.4439 29.8608 38.0689 30.071C37.6996 30.2812 37.4098 30.5881 37.1996 30.9915C36.995 31.3892 36.8899 31.8693 36.8842 32.4318ZM55.1463 26.9091V29.6364H47.2628V26.9091H55.1463ZM49.0526 23.7727H52.6832V35.9773C52.6832 36.3125 52.7344 36.5739 52.8366 36.7614C52.9389 36.9432 53.081 37.071 53.2628 37.1449C53.4503 37.2187 53.6662 37.2557 53.9105 37.2557C54.081 37.2557 54.2514 37.2415 54.4219 37.2131C54.5923 37.179 54.723 37.1534 54.8139 37.1364L55.3849 39.8381C55.2031 39.8949 54.9474 39.9602 54.6179 40.0341C54.2884 40.1136 53.8878 40.1619 53.4162 40.179C52.5412 40.2131 51.7741 40.0966 51.1151 39.8295C50.4616 39.5625 49.9531 39.1477 49.5895 38.5852C49.2259 38.0227 49.0469 37.3125 49.0526 36.4545V23.7727ZM61.2443 40.2472C60.4091 40.2472 59.6648 40.1023 59.0114 39.8125C58.358 39.517 57.8409 39.0824 57.4602 38.5085C57.0852 37.929 56.8977 37.2074 56.8977 36.3438C56.8977 35.6165 57.0313 35.0057 57.2983 34.5114C57.5653 34.017 57.929 33.6193 58.3892 33.3182C58.8494 33.017 59.3722 32.7898 59.9574 32.6364C60.5483 32.483 61.1676 32.375 61.8153 32.3125C62.5767 32.233 63.1903 32.1591 63.6562 32.0909C64.1222 32.017 64.4602 31.9091 64.6705 31.767C64.8807 31.625 64.9858 31.4148 64.9858 31.1364V31.0852C64.9858 30.5455 64.8153 30.1278 64.4744 29.8324C64.1392 29.5369 63.6619 29.3892 63.0426 29.3892C62.3892 29.3892 61.8693 29.5341 61.483 29.8239C61.0966 30.108 60.8409 30.4659 60.7159 30.8977L57.358 30.625C57.5284 29.8295 57.8636 29.142 58.3636 28.5625C58.8636 27.9773 59.5085 27.5284 60.2983 27.2159C61.0938 26.8977 62.0142 26.7386 63.0597 26.7386C63.7869 26.7386 64.483 26.8239 65.1477 26.9943C65.8182 27.1648 66.4119 27.429 66.929 27.7869C67.4517 28.1449 67.8636 28.6051 68.1648 29.1676C68.4659 29.7244 68.6165 30.392 68.6165 31.1705V40H65.1733V38.1847H65.071C64.8608 38.5938 64.5795 38.9545 64.2273 39.267C63.875 39.5739 63.4517 39.8153 62.9574 39.9915C62.4631 40.1619 61.892 40.2472 61.2443 40.2472ZM62.2841 37.7415C62.8182 37.7415 63.2898 37.6364 63.6989 37.4261C64.108 37.2102 64.429 36.9205 64.6619 36.5568C64.8949 36.1932 65.0114 35.7812 65.0114 35.321V33.9318C64.8977 34.0057 64.7415 34.0739 64.5426 34.1364C64.3494 34.1932 64.1307 34.2472 63.8864 34.2983C63.642 34.3437 63.3977 34.3864 63.1534 34.4261C62.9091 34.4602 62.6875 34.4915 62.4886 34.5199C62.0625 34.5824 61.6903 34.6818 61.3722 34.8182C61.054 34.9545 60.8068 35.1392 60.6307 35.3722C60.4545 35.5994 60.3665 35.8835 60.3665 36.2244C60.3665 36.7188 60.5455 37.0966 60.9034 37.358C61.267 37.6136 61.7273 37.7415 62.2841 37.7415ZM75.0639 22.5455V40H71.4332V22.5455H75.0639ZM171.207 28.6562H167.474C167.406 28.1733 167.266 27.7443 167.056 27.3693C166.846 26.9886 166.576 26.6648 166.246 26.3977C165.917 26.1307 165.536 25.9261 165.104 25.7841C164.678 25.642 164.215 25.571 163.715 25.571C162.812 25.571 162.025 25.7955 161.354 26.2443C160.684 26.6875 160.164 27.3352 159.795 28.1875C159.425 29.0341 159.241 30.0625 159.241 31.2727C159.241 32.517 159.425 33.5625 159.795 34.4091C160.17 35.2557 160.692 35.8949 161.363 36.3267C162.033 36.7585 162.809 36.9744 163.69 36.9744C164.184 36.9744 164.641 36.9091 165.062 36.7784C165.488 36.6477 165.866 36.4574 166.195 36.2074C166.525 35.9517 166.798 35.642 167.013 35.2784C167.235 34.9148 167.388 34.5 167.474 34.0341L171.207 34.0511C171.11 34.8523 170.869 35.625 170.482 36.3693C170.102 37.108 169.587 37.7699 168.94 38.3551C168.298 38.9347 167.531 39.3949 166.638 39.7358C165.752 40.071 164.749 40.2386 163.63 40.2386C162.073 40.2386 160.681 39.8864 159.454 39.1818C158.232 38.4773 157.266 37.4574 156.556 36.1222C155.852 34.7869 155.499 33.1705 155.499 31.2727C155.499 29.3693 155.857 27.75 156.573 26.4148C157.289 25.0795 158.261 24.0625 159.488 23.3636C160.715 22.6591 162.096 22.3068 163.63 22.3068C164.641 22.3068 165.579 22.4489 166.442 22.733C167.312 23.017 168.082 23.4318 168.752 23.9773C169.423 24.517 169.968 25.179 170.388 25.9631C170.815 26.7472 171.087 27.6449 171.207 28.6562ZM177.415 22.5455V40H173.785V22.5455H177.415ZM180.324 40V26.9091H183.955V40H180.324ZM182.148 25.2216C181.608 25.2216 181.145 25.0426 180.759 24.6847C180.378 24.321 180.188 23.8864 180.188 23.3807C180.188 22.8807 180.378 22.4517 180.759 22.0938C181.145 21.7301 181.608 21.5483 182.148 21.5483C182.688 21.5483 183.148 21.7301 183.528 22.0938C183.915 22.4517 184.108 22.8807 184.108 23.3807C184.108 23.8864 183.915 24.321 183.528 24.6847C183.148 25.0426 182.688 25.2216 182.148 25.2216ZM190.494 32.4318V40H186.863V26.9091H190.323V29.2188H190.477C190.766 28.4574 191.252 27.8551 191.934 27.4119C192.616 26.9631 193.442 26.7386 194.414 26.7386C195.323 26.7386 196.116 26.9375 196.792 27.3352C197.468 27.733 197.994 28.3011 198.369 29.0398C198.744 29.7727 198.931 30.6477 198.931 31.6648V40H195.3V32.3125C195.306 31.5114 195.102 30.8864 194.687 30.4375C194.272 29.983 193.701 29.7557 192.974 29.7557C192.485 29.7557 192.053 29.8608 191.678 30.071C191.309 30.2812 191.019 30.5881 190.809 30.9915C190.604 31.3892 190.499 31.8693 190.494 32.4318ZM201.793 40V26.9091H205.423V40H201.793ZM203.616 25.2216C203.077 25.2216 202.614 25.0426 202.227 24.6847C201.847 24.321 201.656 23.8864 201.656 23.3807C201.656 22.8807 201.847 22.4517 202.227 22.0938C202.614 21.7301 203.077 21.5483 203.616 21.5483C204.156 21.5483 204.616 21.7301 204.997 22.0938C205.384 22.4517 205.577 22.8807 205.577 23.3807C205.577 23.8864 205.384 24.321 204.997 24.6847C204.616 25.0426 204.156 25.2216 203.616 25.2216ZM214.246 40.2557C212.906 40.2557 211.752 39.9716 210.786 39.4034C209.826 38.8295 209.087 38.0341 208.57 37.017C208.059 36 207.803 34.8295 207.803 33.5057C207.803 32.1648 208.062 30.9886 208.579 29.9773C209.102 28.9602 209.843 28.1676 210.803 27.5994C211.763 27.0256 212.906 26.7386 214.229 26.7386C215.371 26.7386 216.371 26.946 217.229 27.3608C218.087 27.7756 218.766 28.358 219.266 29.108C219.766 29.858 220.042 30.7386 220.093 31.75H216.667C216.57 31.0966 216.315 30.571 215.9 30.1733C215.491 29.7699 214.954 29.5682 214.289 29.5682C213.727 29.5682 213.235 29.7216 212.815 30.0284C212.4 30.3295 212.076 30.7699 211.843 31.3494C211.61 31.929 211.494 32.6307 211.494 33.4545C211.494 34.2898 211.607 35 211.835 35.5852C212.067 36.1705 212.394 36.6165 212.815 36.9233C213.235 37.2301 213.727 37.3835 214.289 37.3835C214.704 37.3835 215.076 37.2983 215.406 37.1278C215.741 36.9574 216.016 36.7102 216.232 36.3864C216.454 36.0568 216.599 35.6619 216.667 35.2017H220.093C220.036 36.2017 219.763 37.0824 219.275 37.8438C218.792 38.5994 218.124 39.1903 217.272 39.6165C216.42 40.0426 215.411 40.2557 214.246 40.2557Z" fill="white"/>
<path d="M117.895 4.5036V38.5108M117.895 4.5036L134.632 2M117.895 4.5036L126.264 19.1079M117.895 4.5036L101.159 2M117.895 4.5036L109.109 19.7338M117.895 38.5108L137.142 44.5612M117.895 38.5108L136.515 29.9568M117.895 38.5108L118.067 38.8255M117.895 38.5108L99.2762 29.9568M117.895 38.5108L118.067 38.136M134.632 2L143 16.3957M134.632 2L118.067 38.136M143 16.3957L136.515 29.9568M143 16.3957L126.264 19.1079M136.515 29.9568L137.142 44.5612M136.515 29.9568L126.264 19.1079M137.142 44.5612L129.402 59.5827L118.067 38.8255M101.159 2L93 15.7698M101.159 2L109.109 19.7338M93 15.7698L99.2762 29.9568M93 15.7698L109.109 19.7338M99.2762 29.9568L98.8577 43.9353M99.2762 29.9568L109.109 19.7338M98.8577 43.9353L106.808 60L118.067 38.8255M98.8577 43.9353L118.067 38.8255M109.109 19.7338L118.067 38.136" stroke="white" stroke-width="2"/>
</svg>
