<svg width="140" height="32" viewBox="0 0 140 32" fill="none" xmlns="http://www.w3.org/2000/svg">
<path d="M5.13636 21H1.01136V9.36364H5.17045C6.34091 9.36364 7.34848 9.59659 8.19318 10.0625C9.03788 10.5246 9.6875 11.1894 10.142 12.0568C10.6004 12.9242 10.8295 13.9621 10.8295 15.1705C10.8295 16.3826 10.6004 17.4242 10.142 18.2955C9.6875 19.1667 9.03409 19.8352 8.18182 20.3011C7.33333 20.767 6.31818 21 5.13636 21ZM3.47159 18.892H5.03409C5.76136 18.892 6.37311 18.7633 6.86932 18.5057C7.36932 18.2443 7.74432 17.8409 7.99432 17.2955C8.24811 16.7462 8.375 16.0379 8.375 15.1705C8.375 14.3106 8.24811 13.608 7.99432 13.0625C7.74432 12.517 7.37121 12.1155 6.875 11.858C6.37879 11.6004 5.76705 11.4716 5.03977 11.4716H3.47159V18.892ZM16.5838 21.1705C15.6861 21.1705 14.9134 20.9886 14.2656 20.625C13.6217 20.2576 13.1255 19.7386 12.777 19.0682C12.4285 18.3939 12.2543 17.5966 12.2543 16.6761C12.2543 15.7784 12.4285 14.9905 12.777 14.3125C13.1255 13.6345 13.616 13.1061 14.2486 12.7273C14.8849 12.3485 15.6312 12.1591 16.4872 12.1591C17.063 12.1591 17.599 12.2519 18.0952 12.4375C18.5952 12.6193 19.0308 12.8939 19.402 13.2614C19.777 13.6288 20.0687 14.0909 20.277 14.6477C20.4853 15.2008 20.5895 15.8485 20.5895 16.5909V17.2557H13.2202V15.7557H18.3111C18.3111 15.4072 18.2353 15.0985 18.0838 14.8295C17.9323 14.5606 17.7221 14.3504 17.4531 14.1989C17.188 14.0436 16.8793 13.9659 16.527 13.9659C16.1596 13.9659 15.8338 14.0511 15.5497 14.2216C15.2694 14.3883 15.0497 14.6136 14.8906 14.8977C14.7315 15.178 14.6501 15.4905 14.6463 15.8352V17.2614C14.6463 17.6932 14.7259 18.0663 14.8849 18.3807C15.0478 18.6951 15.277 18.9375 15.5724 19.108C15.8679 19.2784 16.2183 19.3636 16.6236 19.3636C16.8925 19.3636 17.1387 19.3258 17.3622 19.25C17.5857 19.1742 17.777 19.0606 17.9361 18.9091C18.0952 18.7576 18.2164 18.572 18.2997 18.3523L20.5384 18.5C20.4247 19.0379 20.1918 19.5076 19.8395 19.9091C19.491 20.3068 19.0402 20.6174 18.4872 20.8409C17.938 21.0606 17.3035 21.1705 16.5838 21.1705ZM24.5895 15.9545V21H22.169V12.2727H24.4759V13.8125H24.5781C24.7713 13.3049 25.0952 12.9034 25.5497 12.608C26.0043 12.3087 26.5554 12.1591 27.2031 12.1591C27.8092 12.1591 28.3376 12.2917 28.7884 12.5568C29.2391 12.822 29.5895 13.2008 29.8395 13.6932C30.0895 14.1818 30.2145 14.7652 30.2145 15.4432V21H27.794V15.875C27.7978 15.3409 27.6615 14.9242 27.3849 14.625C27.1084 14.322 26.7277 14.1705 26.2429 14.1705C25.9171 14.1705 25.6293 14.2405 25.3793 14.3807C25.133 14.5208 24.9399 14.7254 24.7997 14.9943C24.6634 15.2595 24.5933 15.5795 24.5895 15.9545ZM36.7642 12.2727V14.0909H31.5085V12.2727H36.7642ZM32.7017 10.1818H35.1222V18.3182C35.1222 18.5417 35.1563 18.7159 35.2244 18.8409C35.2926 18.9621 35.3873 19.0473 35.5085 19.0966C35.6335 19.1458 35.7775 19.1705 35.9403 19.1705C36.054 19.1705 36.1676 19.161 36.2812 19.142C36.3949 19.1193 36.482 19.1023 36.5426 19.0909L36.9233 20.892C36.8021 20.9299 36.6316 20.9735 36.4119 21.0227C36.1922 21.0758 35.9252 21.108 35.6108 21.1193C35.0275 21.142 34.5161 21.0644 34.0767 20.8864C33.6411 20.7083 33.3021 20.4318 33.0597 20.0568C32.8172 19.6818 32.6979 19.2083 32.7017 18.6364V10.1818ZM40.8295 21.1648C40.2727 21.1648 39.7765 21.0682 39.3409 20.875C38.9053 20.678 38.5606 20.3883 38.3068 20.0057C38.0568 19.6193 37.9318 19.1383 37.9318 18.5625C37.9318 18.0777 38.0208 17.6705 38.1989 17.3409C38.3769 17.0114 38.6193 16.7462 38.9261 16.5455C39.233 16.3447 39.5814 16.1932 39.9716 16.0909C40.3655 15.9886 40.7784 15.9167 41.2102 15.875C41.7178 15.822 42.1269 15.7727 42.4375 15.7273C42.7481 15.678 42.9735 15.6061 43.1136 15.5114C43.2538 15.4167 43.3239 15.2765 43.3239 15.0909V15.0568C43.3239 14.697 43.2102 14.4186 42.983 14.2216C42.7595 14.0246 42.4413 13.9261 42.0284 13.9261C41.5928 13.9261 41.2462 14.0227 40.9886 14.2159C40.7311 14.4053 40.5606 14.6439 40.4773 14.9318L38.2386 14.75C38.3523 14.2197 38.5758 13.7614 38.9091 13.375C39.2424 12.9848 39.6723 12.6856 40.1989 12.4773C40.7292 12.2652 41.3428 12.1591 42.0398 12.1591C42.5246 12.1591 42.9886 12.2159 43.4318 12.3295C43.8788 12.4432 44.2746 12.6193 44.6193 12.858C44.9678 13.0966 45.2424 13.4034 45.4432 13.7784C45.6439 14.1496 45.7443 14.5947 45.7443 15.1136V21H43.4489V19.7898H43.3807C43.2405 20.0625 43.053 20.303 42.8182 20.5114C42.5833 20.7159 42.3011 20.8769 41.9716 20.9943C41.642 21.108 41.2614 21.1648 40.8295 21.1648ZM41.5227 19.4943C41.8788 19.4943 42.1932 19.4242 42.4659 19.2841C42.7386 19.1402 42.9527 18.947 43.108 18.7045C43.2633 18.4621 43.3409 18.1875 43.3409 17.8807V16.9545C43.2652 17.0038 43.161 17.0492 43.0284 17.0909C42.8996 17.1288 42.7538 17.1648 42.5909 17.1989C42.428 17.2292 42.2652 17.2576 42.1023 17.2841C41.9394 17.3068 41.7917 17.3277 41.6591 17.3466C41.375 17.3883 41.1269 17.4545 40.9148 17.5455C40.7027 17.6364 40.5379 17.7595 40.4205 17.9148C40.303 18.0663 40.2443 18.2557 40.2443 18.483C40.2443 18.8125 40.3636 19.0644 40.6023 19.2386C40.8447 19.4091 41.1515 19.4943 41.5227 19.4943ZM50.0426 9.36364V21H47.6222V9.36364H50.0426ZM106.732 13.4375H104.243C104.197 13.1155 104.105 12.8295 103.964 12.5795C103.824 12.3258 103.644 12.1098 103.425 11.9318C103.205 11.7538 102.951 11.6174 102.663 11.5227C102.379 11.428 102.071 11.3807 101.737 11.3807C101.135 11.3807 100.61 11.5303 100.163 11.8295C99.7164 12.125 99.3698 12.5568 99.1236 13.125C98.8774 13.6894 98.7543 14.375 98.7543 15.1818C98.7543 16.0114 98.8774 16.7083 99.1236 17.2727C99.3736 17.8371 99.7221 18.2633 100.169 18.5511C100.616 18.839 101.133 18.983 101.72 18.983C102.05 18.983 102.355 18.9394 102.635 18.8523C102.919 18.7652 103.171 18.6383 103.391 18.4716C103.61 18.3011 103.792 18.0947 103.936 17.8523C104.084 17.6098 104.186 17.3333 104.243 17.0227L106.732 17.0341C106.667 17.5682 106.506 18.0833 106.249 18.5795C105.995 19.072 105.652 19.5133 105.22 19.9034C104.792 20.2898 104.281 20.5966 103.686 20.8239C103.095 21.0473 102.427 21.1591 101.68 21.1591C100.643 21.1591 99.7145 20.9242 98.8963 20.4545C98.0819 19.9848 97.438 19.3049 96.9645 18.4148C96.4948 17.5246 96.2599 16.447 96.2599 15.1818C96.2599 13.9129 96.4986 12.8333 96.9759 11.9432C97.4531 11.053 98.1009 10.375 98.919 9.90909C99.7372 9.43939 100.658 9.20455 101.68 9.20455C102.355 9.20455 102.98 9.29924 103.555 9.48864C104.135 9.67803 104.648 9.95455 105.095 10.3182C105.542 10.678 105.906 11.1193 106.186 11.642C106.47 12.1648 106.652 12.7633 106.732 13.4375ZM110.871 9.36364V21H108.45V9.36364H110.871ZM112.81 21V12.2727H115.23V21H112.81ZM114.026 11.1477C113.666 11.1477 113.357 11.0284 113.099 10.7898C112.846 10.5473 112.719 10.2576 112.719 9.92045C112.719 9.58712 112.846 9.30114 113.099 9.0625C113.357 8.82008 113.666 8.69886 114.026 8.69886C114.385 8.69886 114.692 8.82008 114.946 9.0625C115.204 9.30114 115.332 9.58712 115.332 9.92045C115.332 10.2576 115.204 10.5473 114.946 10.7898C114.692 11.0284 114.385 11.1477 114.026 11.1477ZM119.589 15.9545V21H117.169V12.2727H119.476V13.8125H119.578C119.771 13.3049 120.095 12.9034 120.55 12.608C121.004 12.3087 121.555 12.1591 122.203 12.1591C122.809 12.1591 123.338 12.2917 123.788 12.5568C124.239 12.822 124.589 13.2008 124.839 13.6932C125.089 14.1818 125.214 14.7652 125.214 15.4432V21H122.794V15.875C122.798 15.3409 122.661 14.9242 122.385 14.625C122.108 14.322 121.728 14.1705 121.243 14.1705C120.917 14.1705 120.629 14.2405 120.379 14.3807C120.133 14.5208 119.94 14.7254 119.8 14.9943C119.663 15.2595 119.593 15.5795 119.589 15.9545ZM127.122 21V12.2727H129.543V21H127.122ZM128.338 11.1477C127.978 11.1477 127.67 11.0284 127.412 10.7898C127.158 10.5473 127.031 10.2576 127.031 9.92045C127.031 9.58712 127.158 9.30114 127.412 9.0625C127.67 8.82008 127.978 8.69886 128.338 8.69886C128.698 8.69886 129.005 8.82008 129.259 9.0625C129.516 9.30114 129.645 9.58712 129.645 9.92045C129.645 10.2576 129.516 10.5473 129.259 10.7898C129.005 11.0284 128.698 11.1477 128.338 11.1477ZM135.425 21.1705C134.531 21.1705 133.762 20.9811 133.118 20.6023C132.478 20.2197 131.985 19.6894 131.641 19.0114C131.3 18.3333 131.129 17.553 131.129 16.6705C131.129 15.7765 131.302 14.9924 131.646 14.3182C131.995 13.6402 132.489 13.1117 133.129 12.733C133.769 12.3504 134.531 12.1591 135.413 12.1591C136.175 12.1591 136.841 12.2973 137.413 12.5739C137.985 12.8504 138.438 13.2386 138.771 13.7386C139.105 14.2386 139.288 14.8258 139.322 15.5H137.038C136.974 15.0644 136.804 14.714 136.527 14.4489C136.254 14.1799 135.896 14.0455 135.453 14.0455C135.078 14.0455 134.75 14.1477 134.47 14.3523C134.194 14.553 133.978 14.8466 133.822 15.233C133.667 15.6193 133.589 16.0871 133.589 16.6364C133.589 17.1932 133.665 17.6667 133.817 18.0568C133.972 18.447 134.19 18.7443 134.47 18.9489C134.75 19.1534 135.078 19.2557 135.453 19.2557C135.73 19.2557 135.978 19.1989 136.197 19.0852C136.421 18.9716 136.605 18.8068 136.749 18.5909C136.896 18.3712 136.993 18.108 137.038 17.8011H139.322C139.285 18.4678 139.103 19.0549 138.777 19.5625C138.455 20.0663 138.01 20.4602 137.442 20.7443C136.874 21.0284 136.201 21.1705 135.425 21.1705Z" fill="#051E43"/>
<path d="M74.4477 2.2518V19.2554M74.4477 2.2518L82.8159 1M74.4477 2.2518L78.6318 9.55396M74.4477 2.2518L66.0795 1M74.4477 2.2518L70.0544 9.86691M74.4477 19.2554L84.0711 22.2806M74.4477 19.2554L83.7573 14.9784M74.4477 19.2554L74.5336 19.4127M74.4477 19.2554L65.1381 14.9784M74.4477 19.2554L74.5336 19.068M82.8159 1L87 8.19784M82.8159 1L74.5336 19.068M87 8.19784L83.7573 14.9784M87 8.19784L78.6318 9.55396M83.7573 14.9784L84.0711 22.2806M83.7573 14.9784L78.6318 9.55396M84.0711 22.2806L80.2008 29.7914L74.5336 19.4127M66.0795 1L62 7.88489M66.0795 1L70.0544 9.86691M62 7.88489L65.1381 14.9784M62 7.88489L70.0544 9.86691M65.1381 14.9784L64.9289 21.9676M65.1381 14.9784L70.0544 9.86691M64.9289 21.9676L68.9038 30L74.5336 19.4127M64.9289 21.9676L74.5336 19.4127M70.0544 9.86691L74.5336 19.068" stroke="#051E43"/>
</svg>
